# xmcd
#
# Track frame offsets:
#       150
#       23026
#       55901
#       73956
#       90482
#       104246
#       121827
#       136720
#       164325
#       210982
#       219257
#
# Disc length: 3468 seconds
#
# Revision: 0
# Processed by: cddbd v1.4PL0 Copyright (c) Steve Scherf et al.
# Submitted via: CD-DA_X-Tractor v0.23
#
DISCID=960d8a0b
DTITLE=João Bosco and Vinícius - Acústico No Bar
DYEAR=2003
DGENRE=
TTITLE0=Eu tive um Amor/Hoje Eu Quero Te Amar
TTITLE1=Magia E Mistério/Quero Provar Que Te Amo
TTITLE2=Só porque Meu Sentimento Chama por Você
TTITLE3=Pagode Em Brasília - Pagode - Falou E Disse
TTITLE4=De Igual Pra Igual
TTITLE5=Saudade
TTITLE6=Entao Pode Ir
TTITLE7=Faz de Conta/Só liguei pra dizer que te amo
TTITLE8=Nova York/Esse Amor Que Me Mata/Não Precisa Perdão
TTITLE9=Só no Violão
TTITLE10=O sonho mais lindo/Caçador De Corações/O Cheiro Dela
EXTD=
EXTT0=
EXTT1=
EXTT2=
EXTT3=
EXTT4=
EXTT5=
EXTT6=
EXTT7=
EXTT8=
EXTT9=
EXTT10=
PLAYORDER=
